<svg width="292" height="375" viewBox="0 0 292 375" fill="none" xmlns="http://www.w3.org/2000/svg" xmlns:xlink="http://www.w3.org/1999/xlink">
<rect width="292" height="375" rx="10" fill="#18191C"/>
<rect width="292" height="120" fill="url(#pattern0)" rx="10"/>
<circle cx="58.5" cy="119.5" r="42" stroke="#18191C" stroke-width="5"/>
<rect x="19" y="80" width="79" height="79" rx="39.5" fill="url(#pattern1)"/>
<line y1="209.5" x2="292" y2="209.5" stroke="#5B5B5B"/>
<text fill="white" xml:space="preserve" style="white-space: pre" font-family="Inter" font-size="18" font-weight="500" letter-spacing="0.075em"><tspan x="19" y="192.545">[username]</tspan></text>
<text fill="#B9BBBE" xml:space="preserve" style="white-space: pre" font-family="Inter" font-size="11" font-weight="800" letter-spacing="0.065em"><tspan x="19" y="233.5">ABOUT ME</tspan></text>
<text fill="#BBBBBC" xml:space="preserve" style="white-space: pre" font-family="Inter" font-size="13" letter-spacing="-0.005em"><tspan x="19" y="255.727">[about]</tspan></text>
<rect x="19" y="295" width="60" height="60" rx="10" fill="url(#pattern2)"/>
<rect x="63" y="338" width="20" height="20" rx="10" fill="url(#pattern3)"/>
<rect x="244" y="283" width="20" height="20" rx="10" fill="url(#pattern4)"/>
<text fill="#D0D1D1" xml:space="preserve" style="white-space: pre" font-family="Inter" font-size="12" font-weight="300" letter-spacing="0.005em"><tspan x="90" y="327.864">[details]</tspan></text>
<text fill="#B9BBBE" xml:space="preserve" style="white-space: pre" font-family="Inter" font-size="11" font-weight="500" letter-spacing="0.04em"><tspan x="19" y="285.5">[type]</tspan></text>
<defs>
<pattern id="pattern0" patternContentUnits="objectBoundingBox" width="1" height="1">
<use xlink:href="#image0_35_2" transform="translate(0 -0.19564) scale(0.00115741 0.00281636)"/>
</pattern>
<pattern id="pattern1" patternContentUnits="objectBoundingBox" width="1" height="1">
<use xlink:href="#image1_35_2" transform="scale(0.00217391)"/>
</pattern>
<pattern id="pattern2" patternContentUnits="objectBoundingBox" width="1" height="1">
<use xlink:href="#image2_35_2" transform="scale(0.00325733)"/>
</pattern>
<pattern id="pattern3" patternContentUnits="objectBoundingBox" width="1" height="1">
<use xlink:href="#image3_35_2" transform="scale(0.00423729)"/>
</pattern>
<pattern id="pattern4" patternContentUnits="objectBoundingBox" width="1" height="1">
<use xlink:href="#image4_35_2" transform="scale(0.00217391)"/>
</pattern>
<image id="image0_35_2" width="864" height="494" xlink:href="[banner]"/>
<image id="image1_35_2" width="460" height="460" xlink:href="[pfp]"/>
<image id="image2_35_2" width="307" height="307" xlink:href="[large-image]"/>
<image id="image3_35_2" width="236" height="236" xlink:href="[small-image]"/>
<image id="image4_35_2" width="460" height="460" xlink:href="[side-image]"/>
</defs>
</svg>
