<svg width="285" height="172" viewBox="0 0 285 172" fill="none" xmlns="http://www.w3.org/2000/svg" xmlns:xlink="http://www.w3.org/1999/xlink">
<rect width="285" height="172" fill="#18191C"/>
<rect x="253" y="11" width="20" height="20" fill="url(#pattern0)"/>
<rect x="13" y="127" width="224" height="32" rx="5" fill="#4E545B"/>
<rect x="245" y="127" width="32" height="32" rx="3" fill="#4E545B"/>
<path d="M13 34C13 32.3431 14.3431 31 16 31H70C71.6569 31 73 32.3431 73 34V88C73 89.6569 71.6569 91 70 91H16C14.3431 91 13 89.6569 13 88V34Z" fill="#D9D9D9"/>
<rect x="13" y="31" width="60" height="60" rx="3" fill="url(#pattern1)"/>
<rect x="245" y="127" width="32" height="32" rx="5" fill="url(#pattern2)"/>
<text fill="white" xml:space="preserve" style="white-space: pre" font-family="Inter" font-size="12" font-weight="500" letter-spacing="0em"><tspan x="87.5527" y="146.864">[button-text]</tspan></text>
<text fill="#D0D1D1" xml:space="preserve" style="white-space: pre" font-family="Inter" font-size="12" font-weight="300" letter-spacing="0.005em"><tspan x="82" y="81.8636">[on]</tspan></text>
<text fill="#D0D1D1" xml:space="preserve" style="white-space: pre" font-family="Inter" font-size="12" font-weight="300" letter-spacing="0.005em"><tspan x="13" y="111.864">[time-left</tspan></text>
<text fill="#D0D1D1" xml:space="preserve" style="white-space: pre" font-family="Inter" font-size="12" font-weight="300" letter-spacing="0em"><tspan x="65.7953" y="111.864">]</tspan></text>
<text fill="#D0D1D1" xml:space="preserve" style="white-space: pre" font-family="Inter" font-size="12" font-weight="300" letter-spacing="0.005em"><tspan x="82" y="63.8636">[state]</tspan></text>
<text fill="#DCDDDE" xml:space="preserve" style="white-space: pre" font-family="Inter" font-size="12" font-weight="500" letter-spacing="0.1em"><tspan x="82" y="45.8636">[details]</tspan></text>
<text fill="#B5B7B9" xml:space="preserve" style="white-space: pre" font-family="Inter" font-size="11" font-weight="500" letter-spacing="0.045em"><tspan x="13" y="21.5">[type]</tspan></text>
<defs>
<pattern id="pattern0" patternContentUnits="objectBoundingBox" width="1" height="1">
<use xlink:href="#image0_10_18" transform="scale(0.05)"/>
</pattern>
<pattern id="pattern1" patternContentUnits="objectBoundingBox" width="1" height="1">
<use xlink:href="#image1_10_18" transform="scale(0.0166667)"/>
</pattern>
<pattern id="pattern2" patternContentUnits="objectBoundingBox" width="1" height="1">
<use xlink:href="#image2_10_18" transform="scale(0.03125)"/>
</pattern>
<image id="image0_10_18" width="20" height="20" xlink:href="[spotify-logo]"/>
<!-- <image id="image1_10_18" width="60" height="60" xlink:href="[large-image]"/> -->
<image id="image2_10_18" width="32" height="32" xlink:href="[play-along]"/>
</defs>
</svg>
