<svg width="371" height="193" viewBox="0 0 371 193" fill="none" xmlns="http://www.w3.org/2000/svg" xmlns:xlink="http://www.w3.org/1999/xlink">
<g filter="url(#filter0_d_620_132)">
<path d="M5 25.0153C5 13.9696 13.9543 5.01526 25 5.01526H336C347.046 5.01526 356 13.9696 356 25.0153V163.015C356 174.061 347.046 183.015 336 183.015H25C13.9543 183.015 5 174.061 5 163.015V25.0153Z" fill="#18191C"/>
<path d="M336 4.51526H25C13.6782 4.51526 4.5 13.6934 4.5 25.0153V163.015C4.5 174.337 13.6782 183.515 25 183.515H336C347.322 183.515 356.5 174.337 356.5 163.015V25.0153C356.5 13.6934 347.322 4.51526 336 4.51526Z" stroke="url(#paint0_linear_620_132)"/>
</g>
<g filter="url(#filter1_i_620_132)">
<rect x="27" y="38.0153" width="59.3322" height="60.6817" rx="13" fill="url(#pattern0)"/>
</g>
<rect x="68.4291" y="85.4787" width="17.9404" height="18.3303" rx="8.4" fill="url(#pattern1)" stroke="#777777" stroke-width="0.8"/>
<text opacity="0.8" fill="#D0D1D1" xml:space="preserve" style="white-space: pre" font-family="Inter" font-size="11" font-weight="300" letter-spacing="0.005em"><tspan x="93.541" y="87.5153">[on]</tspan></text>
<text fill="#D0D1D1" xml:space="preserve" style="white-space: pre" font-family="Inter" font-size="11" font-weight="300" letter-spacing="0.005em"><tspan x="28.541" y="118.515">[time]</tspan></text>
<text fill="#D0D1D1" xml:space="preserve" style="white-space: pre" font-family="Inter" font-size="11" font-weight="300" letter-spacing="0.005em"><tspan x="93.541" y="70.5153">[state]</tspan></text>
<text fill="#DCDDDE" xml:space="preserve" style="white-space: pre" font-family="Inter" font-size="11" font-weight="500" letter-spacing="0.1em"><tspan x="93.541" y="53.5153">[details]</tspan></text>
<text fill="#B5B7B9" xml:space="preserve" style="white-space: pre" font-family="Inter" font-size="11" font-weight="500" letter-spacing="0.045em"><tspan x="29" y="26.5153">[type]</tspan></text>
<text transform="matrix(0.601815 -0.798635 0.785258 0.619169 204.673 143.731)" fill="#BBBBBC" xml:space="preserve" style="white-space: pre" font-family="Inter" font-size="11" letter-spacing="-0.005em"><tspan x="0" y="10.5">[about]</tspan></text>
<path d="M5 159.015L214 159.015L196 183.015H25C13.9543 183.015 5 174.061 5 163.015V159.015Z" fill="url(#paint1_linear_620_132)"/>
<text transform="translate(48.8291 164.061)" fill="white" xml:space="preserve" style="white-space: pre" font-family="Inter" font-size="10" font-weight="500" letter-spacing="0em"><tspan x="28.8545" y="9.63636">[button-text]</tspan></text>
<g filter="url(#filter2_i_620_132)">
<rect x="268" y="21.0154" width="23" height="23" rx="11.5" fill="url(#pattern2)" style="mix-blend-mode:lighten"/>
</g>
<path d="M334.9 0.800238C335.278 0.305469 335.865 0.0152588 336.488 0.0152588H352.5V0.0152588C362.717 0.0152588 371 8.29799 371 18.5153V168.029C371 179.03 362.116 187.966 351.115 188.029L191 188.948L334.9 0.800238Z" fill="#[hex]"/>
<g filter="url(#filter3_i_620_132)">
<path d="M355.5 10.0154C364.433 11.4562 371 19.1672 371 28.2157V169.015C371 180.061 362.046 189.015 351 189.015H203L287 78.0153L329 22.5154L338 10.0154H355.5V10.0154Z" fill="url(#pattern3)"/>
</g>
<defs>
<filter id="filter0_d_620_132" x="0" y="4.01526" width="361" height="188" filterUnits="userSpaceOnUse" color-interpolation-filters="sRGB">
<feFlood flood-opacity="0" result="BackgroundImageFix"/>
<feColorMatrix in="SourceAlpha" type="matrix" values="0 0 0 0 0 0 0 0 0 0 0 0 0 0 0 0 0 0 127 0" result="hardAlpha"/>
<feOffset dy="4"/>
<feGaussianBlur stdDeviation="2"/>
<feComposite in2="hardAlpha" operator="out"/>
<feColorMatrix type="matrix" values="0 0 0 0 0 0 0 0 0 0 0 0 0 0 0 0 0 0 0.25 0"/>
<feBlend mode="normal" in2="BackgroundImageFix" result="effect1_dropShadow_620_132"/>
<feBlend mode="normal" in="SourceGraphic" in2="effect1_dropShadow_620_132" result="shape"/>
</filter>
<filter id="filter1_i_620_132" x="27" y="38.0153" width="67.332" height="68.6816" filterUnits="userSpaceOnUse" color-interpolation-filters="sRGB">
<feFlood flood-opacity="0" result="BackgroundImageFix"/>
<feBlend mode="normal" in="SourceGraphic" in2="BackgroundImageFix" result="shape"/>
<feColorMatrix in="SourceAlpha" type="matrix" values="0 0 0 0 0 0 0 0 0 0 0 0 0 0 0 0 0 0 127 0" result="hardAlpha"/>
<feOffset dx="8" dy="8"/>
<feGaussianBlur stdDeviation="7.5"/>
<feComposite in2="hardAlpha" operator="arithmetic" k2="-1" k3="1"/>
<feColorMatrix type="matrix" values="0 0 0 0 0 0 0 0 0 0 0 0 0 0 0 0 0 0 0.25 0"/>
<feBlend mode="normal" in2="shape" result="effect1_innerShadow_620_132"/>
</filter>
<pattern id="pattern0" patternContentUnits="objectBoundingBox" width="1" height="1">
<use xlink:href="#image0_620_132" transform="matrix(0.00222336 0 0 0.00217391 -0.0113724 0)"/>
</pattern>
<pattern id="pattern1" patternContentUnits="objectBoundingBox" width="1" height="1">
<use xlink:href="#image1_620_132" transform="matrix(0.00433366 0 0 0.00423729 -0.0113724 0)"/>
</pattern>
<filter id="filter2_i_620_132" x="268" y="19.0154" width="25" height="25" filterUnits="userSpaceOnUse" color-interpolation-filters="sRGB">
<feBlend mode="normal" in="SourceGraphic" in2="BackgroundImageFix" result="shape"/>
<feColorMatrix in="SourceAlpha" type="matrix" values="0 0 0 0 0 0 0 0 0 0 0 0 0 0 0 0 0 0 127 0" result="hardAlpha"/>
<feOffset dx="2" dy="-2"/>
<feGaussianBlur stdDeviation="2"/>
<feComposite in2="hardAlpha" operator="arithmetic" k2="-1" k3="1"/>
<feColorMatrix type="matrix" values="0 1 0 1 325234"/>
<feBlend mode="normal" in2="shape" result="effect1_innerShadow_620_132"/>
</filter>
<pattern id="pattern2" patternContentUnits="objectBoundingBox" width="1" height="1">
<use xlink:href="#image2_620_132" transform="translate(0 -0.0116279) scale(0.0116279)"/>
</pattern>
<filter id="filter3_i_620_132" x="187" y="-5.98462" width="184" height="195" filterUnits="userSpaceOnUse" color-interpolation-filters="sRGB">
<feFlood flood-opacity="0" result="BackgroundImageFix"/>
<feBlend mode="normal" in="SourceGraphic" in2="BackgroundImageFix" result="shape"/>
<feColorMatrix in="SourceAlpha" type="matrix" values="0 0 0 0 0 0 0 0 0 0 0 0 0 0 0 0 0 0 127 0" result="hardAlpha"/>
<feOffset dx="-16" dy="-16"/>
<feGaussianBlur stdDeviation="15"/>
<feComposite in2="hardAlpha" operator="arithmetic" k2="-1" k3="1"/>
<feColorMatrix type="matrix" values="0 0 0 0 0.2125 0 0 0 0 0.2125 0 0 0 0 0.2125 0 0 0 0.6 0"/>
<feBlend mode="normal" in2="shape" result="effect1_innerShadow_620_132"/>
</filter>
<pattern id="pattern3" patternContentUnits="objectBoundingBox" width="1" height="1">
<use xlink:href="#image3_620_132" transform="matrix(0.000611772 0 0 0.000574178 -0.674602 -0.240224)"/>
</pattern>
<linearGradient id="paint0_linear_620_132" x1="180.5" y1="5.01526" x2="180.5" y2="183.015" gradientUnits="userSpaceOnUse">
<stop/>
<stop offset="1"/>
</linearGradient>
<linearGradient id="paint1_linear_620_132" x1="101.12" y1="160.015" x2="101.12" y2="181.591" gradientUnits="userSpaceOnUse">
<stop stop-color="#4E545B"/>
<stop offset="1" stop-color="#626879"/>
</linearGradient>
<linearGradient id="paint2_linear_620_132" x1="281.479" y1="-10.3195" x2="281.479" y2="188.949" gradientUnits="userSpaceOnUse">
<stop stop-color="#B491FF"/>
<stop offset="1" stop-color="#6440AF"/>
</linearGradient>
<image id="image0_620_132" width="460" height="460" xlink:href="[large-image]"/>
<image id="image1_620_132" width="236" height="236" xlink:href="[small-image]"/>
<image id="image2_620_132" width="86" height="88" xlink:href="[logo]"/>
<image id="image3_620_132" width="3840" height="2160" xlink:href="[banner]"/>
</defs>
</svg>
