<svg width="352" height="178" viewBox="0 0 352 178" fill="none" xmlns="http://www.w3.org/2000/svg" xmlns:xlink="http://www.w3.org/1999/xlink">
<path d="M0 0H352V178H0V0Z" fill="#18191C"/>
<rect x="286" y="9" width="17" height="17" rx="6" fill="url(#pattern0)"/>
<rect x="22" y="53" width="58" height="58" rx="10" fill="url(#pattern1)"/>
<path d="M273.5 48.5L352 0V178H195L273.5 48.5Z" fill="#[hex]"/>
<text fill="#DCDDDE" xml:space="preserve" style="white-space: pre" font-family="Inter" font-size="11" font-weight="500" letter-spacing="0.1em"><tspan x="96" y="82.5">[details]</tspan></text>
<text fill="#B5B7B9" xml:space="preserve" style="white-space: pre" font-family="Inter" font-size="11" font-weight="500" letter-spacing="0.045em"><tspan x="22" y="33.5">[type]</tspan></text>
<text transform="matrix(0.515038 -0.857167 0.845677 0.533695 195.463 144.571)" fill="#BBBBBC" xml:space="preserve" style="white-space: pre" font-family="Inter" font-size="11" letter-spacing="-0.005em"><tspan x="0" y="10.5">[about]</tspan></text>
<rect x="22" y="145.636" width="153" height="21.5757" rx="3" fill="#4E545B"/>
<text transform="translate(43.8571 149.682)" fill="white" xml:space="preserve" style="white-space: pre" font-family="Inter" font-size="10" font-weight="500" letter-spacing="0em"><tspan x="21.2511" y="9.63636">[button-text]</tspan></text>
<path d="M273.5 48.5L352 0V178H195L273.5 48.5Z" fill="url(#pattern2)"/>
<defs>
<pattern id="pattern0" patternContentUnits="objectBoundingBox" width="1" height="1">
<use xlink:href="#image0_203_2" transform="scale(0.00217391)"/>
</pattern>
<pattern id="pattern1" patternContentUnits="objectBoundingBox" width="1" height="1">
<use xlink:href="#image1_203_2" transform="translate(0 -0.168338) scale(0.000835422)"/>
</pattern>
<pattern id="pattern2" patternContentUnits="objectBoundingBox" width="1" height="1">
<use xlink:href="#image2_203_2" transform="translate(-0.396995) scale(0.000524888 0.000462963)"/>
</pattern>
<image id="image0_203_2" width="460" height="460" xlink:href="[pfp]"/>
<image id="image1_203_2" width="1197" height="1600" xlink:href="[large-image]"/>
<image id="image2_203_2" width="3840" height="2160" xlink:href="[banner]"/>
</defs>
</svg>
