<svg width="352" height="178" viewBox="0 0 352 178" fill="none" xmlns="http://www.w3.org/2000/svg" xmlns:xlink="http://www.w3.org/1999/xlink">
<path d="M0 0H351V178H0V0Z" fill="#18191C"/>
<rect x="286" y="9" width="17" height="17" rx="6" fill="url(#pattern0)"/>
<rect x="24" y="38" width="52.7397" height="53.9393" rx="10" fill="url(#pattern1)"/>
<path d="M273 48.5L351 0V178H195L273 48.5Z" fill="#[hex]"/>
<text opacity="0.8" fill="#D0D1D1" xml:space="preserve" style="white-space: pre" font-family="Inter" font-size="11" font-weight="300" letter-spacing="0.005em"><tspan x="88.5411" y="82.5">[details]</tspan></text>
<text fill="#D0D1D1" xml:space="preserve" style="white-space: pre" font-family="Inter" font-size="11" font-weight="300" letter-spacing="0.005em"><tspan x="23.5411" y="113.5">[time]</tspan></text>
<text fill="#D0D1D1" xml:space="preserve" style="white-space: pre" font-family="Inter" font-size="11" font-weight="300" letter-spacing="0.005em"><tspan x="88.5411" y="65.5">[state]</tspan></text>
<text fill="#DCDDDE" xml:space="preserve" style="white-space: pre" font-family="Inter" font-size="11" font-weight="500" letter-spacing="0.1em"><tspan x="88.5411" y="48.5">[name]</tspan></text>
<text fill="#B5B7B9" xml:space="preserve" style="white-space: pre" font-family="Inter" font-size="11" font-weight="500" letter-spacing="0.045em"><tspan x="24" y="21.5">[type]</tspan></text>
<text transform="matrix(0.515038 -0.857167 0.845677 0.533695 195.463 144.571)" fill="#BBBBBC" xml:space="preserve" style="white-space: pre" font-family="Inter" font-size="11" letter-spacing="-0.005em"><tspan x="0" y="10.5">[about]</tspan></text>
<rect x="22" y="145.636" width="153" height="21.5757" rx="3" fill="#4E545B"/>
<text transform="translate(43.8571 149.682)" fill="white" xml:space="preserve" style="white-space: pre" font-family="Inter" font-size="10" font-weight="500" letter-spacing="0em"><tspan x="21.2511" y="9.63636">[button-text]</tspan></text>
<path d="M273 48.5L351 0L352 178H195L273 48.5Z" fill="url(#pattern2)"/>
<defs>
<pattern id="pattern0" patternContentUnits="objectBoundingBox" width="1" height="1">
<use xlink:href="#image0_203_12" transform="scale(0.00217391)"/>
</pattern>
<pattern id="pattern1" patternContentUnits="objectBoundingBox" width="1" height="1">
<use xlink:href="#image1_203_12" transform="translate(0 -0.153474) scale(0.000835422 0.000816843)"/>
</pattern>
<pattern id="pattern2" patternContentUnits="objectBoundingBox" width="1" height="1">
<use xlink:href="#image2_203_12" transform="translate(-0.396995) scale(0.000524888 0.000462963)"/>
</pattern>
<image id="image0_203_12" width="460" height="460" xlink:href="[pfp]"/>
<image id="image1_203_12" width="1197" height="1600" xlink:href="[large-image]"/>
<image id="image2_203_12" width="3840" height="2160" xlink:href="[banner]"/>
</defs>
</svg>
