<svg width="351" height="178" viewBox="0 0 351 178" fill="none" xmlns="http://www.w3.org/2000/svg" xmlns:xlink="http://www.w3.org/1999/xlink">
<path d="M0 0H351V178H0V0Z" fill="#18191C"/>
<rect x="22" y="33" width="59.3322" height="60.6817" rx="13" fill="url(#pattern0)"/>
<rect x="63.8289" y="80.8635" width="17.1404" height="17.5303" rx="8" fill="url(#pattern1)"/>
<text opacity="0.8" fill="#D0D1D1" xml:space="preserve" style="white-space: pre" font-family="Inter" font-size="11" font-weight="300" letter-spacing="0.005em"><tspan x="88.5411" y="82.5">[on]</tspan></text>
<text fill="#D0D1D1" xml:space="preserve" style="white-space: pre" font-family="Inter" font-size="11" font-weight="300" letter-spacing="0.005em"><tspan x="23.5411" y="113.5">[time]</tspan></text>
<text fill="#D0D1D1" xml:space="preserve" style="white-space: pre" font-family="Inter" font-size="11" font-weight="300" letter-spacing="0.005em"><tspan x="88.5411" y="65.5">[state]</tspan></text>
<text fill="#DCDDDE" xml:space="preserve" style="white-space: pre" font-family="Inter" font-size="11" font-weight="500" letter-spacing="0.1em"><tspan x="88.5411" y="48.5">[details]</tspan></text>
<text fill="#B5B7B9" xml:space="preserve" style="white-space: pre" font-family="Inter" font-size="11" font-weight="500" letter-spacing="0.045em"><tspan x="24" y="21.5">[type]</tspan></text>
<text transform="matrix(0.515038 -0.857167 0.845677 0.533695 195.463 144.571)" fill="#BBBBBC" xml:space="preserve" style="white-space: pre" font-family="Inter" font-size="11" letter-spacing="-0.005em"><tspan x="0" y="10.5">[about]</tspan></text>
<rect x="22" y="145.636" width="153" height="21.5757" rx="3" fill="#4E545B"/>
<text transform="translate(43.8571 149.682)" fill="white" xml:space="preserve" style="white-space: pre" font-family="Inter" font-size="10" font-weight="500" letter-spacing="0em"><tspan x="21.2511" y="9.63636">[button-text]</tspan></text>
<rect x="285" y="8" width="17.1404" height="17.5303" rx="8.57021" fill="url(#pattern2)"/>
<path d="M273 48.5L351 0V178H195L273 48.5Z" fill="#[hex]"/>
<path d="M273 48.5L351 0V178H195L273 48.5Z" fill="url(#pattern3)"/>
<defs>
<pattern id="pattern0" patternContentUnits="objectBoundingBox" width="1" height="1">
<use xlink:href="#image0_203_45" transform="translate(-0.0113724) scale(0.00222336 0.00217391)"/>
</pattern>
<pattern id="pattern1" patternContentUnits="objectBoundingBox" width="1" height="1">
<use xlink:href="#image1_203_45" transform="translate(-0.0113724) scale(0.00433366 0.00423729)"/>
</pattern>
<pattern id="pattern2" patternContentUnits="objectBoundingBox" width="1" height="1">
<use xlink:href="#image2_203_45" transform="translate(0 -0.000249848) scale(0.0116279 0.0113693)"/>
</pattern>
<pattern id="pattern3" patternContentUnits="objectBoundingBox" width="1" height="1">
<use xlink:href="#image3_203_45" transform="translate(-0.40595) scale(0.000528253 0.000462963)"/>
</pattern>
<image id="image0_203_45" width="460" height="460" xlink:href="[large-image]"/>
<image id="image1_203_45" width="236" height="236" xlink:href="[small-image]"/>
<svg id="image2_203_45" height="86" width="88" version="1.1" viewBox="0 0 168 168">
 <path fill="#1ED760" d="m83.996 0.277c-46.249 0-83.743 37.493-83.743 83.742 0 46.251 37.494 83.741 83.743 83.741 46.254 0 83.744-37.49 83.744-83.741 0-46.246-37.49-83.738-83.745-83.738l0.001-0.004zm38.404 120.78c-1.5 2.46-4.72 3.24-7.18 1.73-19.662-12.01-44.414-14.73-73.564-8.07-2.809 0.64-5.609-1.12-6.249-3.93-0.643-2.81 1.11-5.61 3.926-6.25 31.9-7.291 59.263-4.15 81.337 9.34 2.46 1.51 3.24 4.72 1.73 7.18zm10.25-22.805c-1.89 3.075-5.91 4.045-8.98 2.155-22.51-13.839-56.823-17.846-83.448-9.764-3.453 1.043-7.1-0.903-8.148-4.35-1.04-3.453 0.907-7.093 4.354-8.143 30.413-9.228 68.222-4.758 94.072 11.127 3.07 1.89 4.04 5.91 2.15 8.976v-0.001zm0.88-23.744c-26.99-16.031-71.52-17.505-97.289-9.684-4.138 1.255-8.514-1.081-9.768-5.219-1.254-4.14 1.08-8.513 5.221-9.771 29.581-8.98 78.756-7.245 109.83 11.202 3.73 2.209 4.95 7.016 2.74 10.733-2.2 3.722-7.02 4.949-10.73 2.739z"/>
</svg>
<image id="image3_203_45" width="3840" height="2160" xlink:href="[banner]"/>
</defs>
</svg>
