<svg width="351" height="178" viewBox="0 0 351 178" fill="none" xmlns="http://www.w3.org/2000/svg" xmlns:xlink="http://www.w3.org/1999/xlink">
<path d="M0 0H351V178H0V0Z" fill="#18191C"/>
<rect x="18" y="37" width="59.3322" height="60.6817" rx="13" fill="url(#pattern0)"/>
<rect x="62.8288" y="82.8484" width="19.7774" height="20.2272" rx="9.8887" fill="url(#pattern1)"/>
<rect x="287" y="5" width="19.7774" height="20.2272" rx="9.8887" fill="url(#pattern2)"/>
<path d="M273 48.5L351 0V178H195L273 48.5Z" fill="#[hex]"/>
<text opacity="0.8" fill="#D0D1D1" xml:space="preserve" style="white-space: pre" font-family="Inter" font-size="11" font-weight="300" letter-spacing="0.005em"><tspan x="87" y="86.5">[details]</tspan></text>
<text fill="#D0D1D1" xml:space="preserve" style="white-space: pre" font-family="Inter" font-size="11" font-weight="300" letter-spacing="0.005em"><tspan x="22" y="117.5">[time]</tspan></text>
<text fill="#D0D1D1" xml:space="preserve" style="white-space: pre" font-family="Inter" font-size="11" font-weight="300" letter-spacing="0.005em"><tspan x="87" y="69.5">[state]</tspan></text>
<text fill="#DCDDDE" xml:space="preserve" style="white-space: pre" font-family="Inter" font-size="11" font-weight="500" letter-spacing="0.1em"><tspan x="87" y="52.5">[name]</tspan></text>
<text fill="#B5B7B9" xml:space="preserve" style="white-space: pre" font-family="Inter" font-size="11" font-weight="500" letter-spacing="0.045em"><tspan x="22.4589" y="25.5">[type]</tspan></text>
<text transform="matrix(0.515038 -0.857167 0.845677 0.533695 195.463 144.571)" fill="#BBBBBC" xml:space="preserve" style="white-space: pre" font-family="Inter" font-size="11" letter-spacing="-0.005em"><tspan x="0" y="10.5">[about]</tspan></text>
<rect x="18" y="145.636" width="157" height="21.5757" rx="3" fill="#4E545B"/>
<text transform="translate(40.4285 149.682)" fill="white" xml:space="preserve" style="white-space: pre" font-family="Inter" font-size="10" font-weight="500" letter-spacing="0em"><tspan x="22.6225" y="9.63636">[button-text]</tspan></text>
<path d="M273 48.5L351 0V178H195L273 48.5Z" fill="url(#pattern3)"/>
<defs>
<pattern id="pattern0" patternContentUnits="objectBoundingBox" width="1" height="1">
<use xlink:href="#image0_203_28" transform="translate(-0.00455104 -0.0806934) scale(0.01 0.0109455)"/>
</pattern>
<pattern id="pattern1" patternContentUnits="objectBoundingBox" width="1" height="1">
<use xlink:href="#image1_203_28" transform="translate(-0.0113724) scale(0.0444672 0.0434783)"/>
</pattern>
<pattern id="pattern2" patternContentUnits="objectBoundingBox" width="1" height="1">
<use xlink:href="#image1_203_28" transform="translate(-0.0113724) scale(0.0444672 0.0434783)"/>
</pattern>
<pattern id="pattern3" patternContentUnits="objectBoundingBox" width="1" height="1">
<use xlink:href="#image2_203_28" transform="translate(-0.39954) scale(0.000528253 0.000462963)"/>
</pattern>
<image id="image0_203_28" width="103" height="105" xlink:href="[large-image]"/>
<image id="image1_203_28" width="23" height="23" xlink:href="[small-image]"/>
<image id="image2_203_28" width="3840" height="2160" xlink:href="[banner]"/>
</defs>
</svg>
