<svg width="292" height="437" viewBox="0 0 292 437" fill="none" xmlns="http://www.w3.org/2000/svg" xmlns:xlink="http://www.w3.org/1999/xlink">
<rect width="292" height="437" fill="#18191C" rx="15"/>
<rect width="293" height="120" fill="#[hex]" rx="0"/>
<!-- <line y1="120" x2="292" y2="120" stroke="#5B5B5B"/> -->
<rect width="292" height="121" fill="url(#pattern0)" rx="0"/>
<line y1="209.5" x2="292" y2="209.5" stroke="#5B5B5B"/>
<circle cx="58.5" cy="119.5" r="42" stroke="#18191C" stroke-width="5"/>
<rect x="19" y="80" width="79" height="79" rx="39.5" fill="url(#pattern1)"/>
<text fill="white" xml:space="preserve" style="white-space: pre" font-family="sans-serif" font-size="18" font-weight="500" letter-spacing="0.075em"><tspan x="19" y="192.545">[username]</tspan></text>
<text fill="#B9BBBE" xml:space="preserve" style="white-space: pre" font-family="sans-serif" font-size="11" font-weight="800" letter-spacing="0.065em"><tspan x="19" y="233.5">ABOUT ME</tspan></text>
<text fill="#BBBBBC" xml:space="preserve" style="white-space: pre" font-family="sans-serif" font-size="13" letter-spacing="-0.005em"><tspan x="19" y="255.727">[about]</tspan></text>
<rect x="14" y="391" width="224" height="32" rx="5" fill="#4E545B"/>
<rect x="246" y="391" width="32" height="32" rx="3" fill="#4E545B"/>
<rect x="249" y="393" width="32" height="32" rx="5" fill="url(#pattern2)"/>
<rect x="14" y="299" width="60" height="60" rx="30" fill="url(#pattern3)"/>
<rect x="54" y="340" width="20" height="20" rx="10" fill="url(#pattern4)"/>
<rect x="254" y="276" width="20" height="20" rx="10" fill="url(#pattern5)"/>
<text fill="white" xml:space="preserve" style="white-space: pre" font-family="sans-serif" font-size="12" font-weight="500" letter-spacing="0em"><tspan x="88.5527" y="410.864">[button-text]</tspan></text>
<text fill="#D0D1D1" xml:space="preserve" style="white-space: pre" font-family="sans-serif" font-size="12" font-weight="300" letter-spacing="0.005em"><tspan x="83" y="345.864">[on]</tspan></text>
<text fill="#D0D1D1" xml:space="preserve" style="white-space: pre" font-family="sans-serif" font-size="12" font-weight="300" letter-spacing="0.005em"><tspan x="83" y="363.864">[time]</tspan></text>
<text fill="#D0D1D1" xml:space="preserve" style="white-space: pre" font-family="sans-serif" font-size="12" font-weight="300" letter-spacing="0.005em"><tspan x="83" y="327.864">[state]</tspan></text>
<text fill="#DCDDDE" xml:space="preserve" style="white-space: pre" font-family="sans-serif" font-size="12" font-weight="500" letter-spacing="0.1em"><tspan x="83" y="309.864">[details]</tspan></text>
<text fill="#B5B7B9" xml:space="preserve" style="white-space: pre" font-family="sans-serif" font-size="11" font-weight="500" letter-spacing="0.045em"><tspan x="19" y="289.5">[type]</tspan></text>
<defs>
<pattern id="pattern0" patternContentUnits="objectBoundingBox" width="1" height="1">
<use xlink:href="#image0_23_5" transform="translate(0 -0.184375) scale(0.000260417 0.000633681)"/>
</pattern>
<pattern id="pattern1" patternContentUnits="objectBoundingBox" width="1" height="1">
<use xlink:href="#image1_23_5" transform="scale(0.00217391)"/>
</pattern>
<pattern id="pattern2" patternContentUnits="objectBoundingBox" width="1" height="1">
<use xlink:href="#image2_23_5" transform="scale(0.03125)"/>
</pattern>
<pattern id="pattern3" patternContentUnits="objectBoundingBox" width="1" height="1">
<use xlink:href="#image3_23_5" transform="scale(0.000976562)"/>
</pattern>
<pattern id="pattern4" patternContentUnits="objectBoundingBox" width="1" height="1">
<use xlink:href="#image4_23_5" transform="scale(0.00217391)"/>
</pattern>
<pattern id="pattern5" patternContentUnits="objectBoundingBox" width="1" height="1">
<use xlink:href="#image5_23_5" transform="translate(0 -0.0116279) scale(0.0116279)"/>
</pattern>
<image id="image0_23_5" width="3840" height="2160" xlink:href="[banner]"/>
<image id="image1_23_5" width="460" height="460" xlink:href="[pfp]"/>
<svg id="image2_23_5" width="28" height="28"  viewBox="0 0 24 24"><path fill="white" d="M11.8 14a6.1 6.1 0 0 0 0 6H3v-2c0-2.7 5.3-4 8-4h.8zm-.8-2c-2.2 0-4-1.8-4-4s1.8-4 4-4 4 1.8 4 4-1.8 4-4 4zm6 1c2.2 0 4 1.8 4 4s-1.8 4-4 4-4-1.8-4-4 1.8-4 4-4zm-1 6.2l3-2.2-3-2.2v4.4z"></path></svg>
<image id="image3_23_5" width="1024" height="1024" xlink:href="[large-image]"/>
<image id="image4_23_5" width="460" height="460" xlink:href="[small-image]"/>
<svg id="image5_23_5" xmlns="http://www.w3.org/2000/svg" width="86" height="88" version="1.1" viewBox="0 0 168 168">
 <path fill="#1ED760" d="m83.996 0.277c-46.249 0-83.743 37.493-83.743 83.742 0 46.251 37.494 83.741 83.743 83.741 46.254 0 83.744-37.49 83.744-83.741 0-46.246-37.49-83.738-83.745-83.738l0.001-0.004zm38.404 120.78c-1.5 2.46-4.72 3.24-7.18 1.73-19.662-12.01-44.414-14.73-73.564-8.07-2.809 0.64-5.609-1.12-6.249-3.93-0.643-2.81 1.11-5.61 3.926-6.25 31.9-7.291 59.263-4.15 81.337 9.34 2.46 1.51 3.24 4.72 1.73 7.18zm10.25-22.805c-1.89 3.075-5.91 4.045-8.98 2.155-22.51-13.839-56.823-17.846-83.448-9.764-3.453 1.043-7.1-0.903-8.148-4.35-1.04-3.453 0.907-7.093 4.354-8.143 30.413-9.228 68.222-4.758 94.072 11.127 3.07 1.89 4.04 5.91 2.15 8.976v-0.001zm0.88-23.744c-26.99-16.031-71.52-17.505-97.289-9.684-4.138 1.255-8.514-1.081-9.768-5.219-1.254-4.14 1.08-8.513 5.221-9.771 29.581-8.98 78.756-7.245 109.83 11.202 3.73 2.209 4.95 7.016 2.74 10.733-2.2 3.722-7.02 4.949-10.73 2.739z"/>
</svg>
</defs>
</svg>
